<svg width="512" height="474" viewBox="0 0 512 474" fill="none" xmlns="http://www.w3.org/2000/svg">
<path d="M455.191 465.986L88.111 428.12C82.41 427.532 78.265 422.433 78.853 416.732L116.719 49.653C117.307 43.952 122.406 39.807 128.107 40.395L495.186 78.261C500.887 78.849 505.032 83.948 504.444 89.649L466.578 456.728C465.99 462.429 460.892 466.574 455.191 465.986Z" fill="#2EA2BC"/>
<path d="M447.64 73.353V416.43C447.64 422.159 442.991 426.808 437.262 426.808H84.036C80.57 424.836 78.422 420.945 78.857 416.731L116.715 49.65C117.307 43.953 122.402 39.802 128.11 40.393L447.64 73.353Z" fill="#24D1F8"/>
<path d="M504.448 89.644L466.581 456.728C465.993 462.426 460.891 466.574 455.193 465.986L414.036 461.74C419.734 462.328 424.836 458.18 425.424 452.482L463.291 85.398C463.879 79.7 459.731 74.598 454.033 74.01L495.19 78.256C500.888 78.844 505.036 83.946 504.448 89.644V89.644Z" fill="#24D1F8"/>
<path d="M447.633 18.336V387.358C447.633 393.098 442.993 397.738 437.263 397.738H68.23C62.5 397.738 57.85 393.098 57.85 387.358V18.336C57.85 12.606 62.5 7.95599 68.23 7.95599H437.262C442.993 7.95599 447.633 12.606 447.633 18.336V18.336Z" fill="#F8F3F1"/>
<path d="M201.341 120.826C201.341 146.646 180.331 167.646 154.521 167.646H57.85V141.706H154.521C166.031 141.706 175.391 132.336 175.391 120.826C175.391 109.316 166.031 99.956 154.521 99.956H104.231C97.071 99.956 91.261 94.146 91.261 86.986C91.261 79.816 97.071 74.006 104.231 74.006H154.521C180.331 74.006 201.341 95.016 201.341 120.826Z" fill="#E5E1E5"/>
<path d="M447.64 18.33V387.362C447.64 393.091 442.991 397.74 437.262 397.74H395.886C401.614 397.74 406.264 393.091 406.264 387.362V18.33C406.264 12.601 401.615 7.952 395.886 7.952H437.262C442.991 7.953 447.64 12.602 447.64 18.33V18.33Z" fill="#E5E1E5"/>
<path d="M57.855 79.487H54.319C42.809 79.487 33.444 88.851 33.444 100.362C33.444 111.872 42.808 121.237 54.319 121.237H154.519C166.03 121.237 175.394 111.873 175.394 100.362C175.394 88.851 166.03 79.487 154.519 79.487H104.23C97.065 79.487 91.258 73.679 91.258 66.515C91.258 59.351 97.066 53.543 104.23 53.543H154.519C180.335 53.543 201.338 74.546 201.338 100.362C201.338 126.178 180.335 147.181 154.519 147.181H54.319C28.503 147.181 7.5 126.178 7.5 100.362C7.5 74.546 28.503 53.543 54.319 53.543H57.855V79.487Z" fill="#24D1F8"/>
<path d="M495.956 70.8L455.137 66.59V18.335C455.137 8.478 447.117 0.457001 437.259 0.457001H352.015C347.872 0.457001 344.515 3.815 344.515 7.957C344.515 12.099 347.872 15.457 352.015 15.457H437.259C438.846 15.457 440.137 16.748 440.137 18.334V387.361C440.137 388.947 438.846 390.238 437.259 390.238H68.232C66.646 390.238 65.355 388.947 65.355 387.361V290.207C65.355 286.065 61.997 282.707 57.855 282.707C53.713 282.707 50.355 286.065 50.355 290.207V387.361C50.355 397.219 58.375 405.239 68.233 405.239H72.499L71.393 415.962C70.382 425.767 77.537 434.568 87.342 435.58L318.498 459.425C318.76 459.452 319.019 459.465 319.276 459.465C323.072 459.465 326.33 456.592 326.727 452.734C327.153 448.614 324.157 444.929 320.037 444.504L88.881 420.659C87.302 420.496 86.151 419.079 86.313 417.501L87.578 405.239H437.26C447.118 405.239 455.138 397.219 455.138 387.361V81.67L494.418 85.722C495.996 85.885 497.148 87.302 496.985 88.88L459.119 455.959C459.013 456.991 458.417 457.616 458.071 457.897C457.726 458.178 456.998 458.632 455.961 458.526L356.168 448.232C352.034 447.81 348.362 450.803 347.938 454.923C347.512 459.043 350.508 462.728 354.628 463.153L454.421 473.447C455.046 473.511 455.669 473.543 456.289 473.543C460.38 473.543 464.315 472.151 467.533 469.536C471.238 466.523 473.549 462.248 474.038 457.498L511.904 90.419C512.916 80.613 505.762 71.812 495.956 70.8V70.8Z" fill="black"/>
<path d="M50.355 253.918C50.355 258.06 53.713 261.418 57.855 261.418C61.997 261.418 65.355 258.06 65.355 253.918V154.681H154.519C184.471 154.681 208.838 130.314 208.838 100.362C208.838 70.41 184.471 46.042 154.519 46.042H104.23C92.941 46.042 83.758 55.226 83.758 66.514C83.758 77.802 92.942 86.986 104.23 86.986H154.519C161.894 86.986 167.894 92.986 167.894 100.361C167.894 107.736 161.894 113.735 154.519 113.735H65.355V79.487V53.543V18.335C65.355 16.749 66.646 15.458 68.232 15.458H315.726C319.869 15.458 323.226 12.1 323.226 7.95801C323.226 3.81601 319.869 0.458008 315.726 0.458008H68.232C58.375 0.458008 50.354 8.47801 50.354 18.336V46.204C22.249 48.242 0 71.745 0 100.362C0 128.979 22.249 152.481 50.355 154.52V253.918ZM40.945 100.362C40.945 94.367 44.91 89.28 50.355 87.587V113.136C44.91 111.443 40.945 106.357 40.945 100.362ZM15 100.362C15 80.019 30.529 63.235 50.355 61.241V72.263C36.579 74.197 25.945 86.061 25.945 100.362C25.945 116.008 38.674 128.736 54.319 128.736H154.519C170.165 128.736 182.894 116.007 182.894 100.362C182.894 84.716 170.165 71.987 154.519 71.987H104.23C101.212 71.987 98.758 69.532 98.758 66.515C98.758 63.497 101.213 61.043 104.23 61.043H154.519C176.2 61.043 193.838 78.682 193.838 100.363C193.838 122.043 176.2 139.682 154.519 139.682H54.319C32.638 139.681 15 122.043 15 100.362V100.362Z" fill="black"/>
<path d="M235.864 227.869C231.722 227.869 228.364 231.227 228.364 235.369C228.364 239.511 231.722 242.869 235.864 242.869H269.619C273.762 242.869 277.119 239.511 277.119 235.369C277.119 231.227 273.762 227.869 269.619 227.869H235.864Z" fill="black"/>
<path d="M301.44 198.397C301.44 194.255 298.083 190.897 293.94 190.897H211.542C207.4 190.897 204.042 194.255 204.042 198.397C204.042 202.539 207.4 205.897 211.542 205.897H293.94C298.083 205.897 301.44 202.539 301.44 198.397Z" fill="black"/>
<path d="M293.94 162.829H211.542C207.4 162.829 204.042 166.187 204.042 170.329C204.042 174.471 207.4 177.829 211.542 177.829H293.94C298.083 177.829 301.44 174.471 301.44 170.329C301.44 166.187 298.083 162.829 293.94 162.829Z" fill="black"/>
</svg>
