<svg xmlns="http://www.w3.org/2000/svg" width="186.255" height="172.099" viewBox="0 0 186.255 172.099"><g transform="translate(0 -0.457)"><path d="M215.722,195.181,82.186,181.406a3.775,3.775,0,0,1-3.368-4.143L92.593,43.728a3.775,3.775,0,0,1,4.143-3.368L230.271,54.135a3.775,3.775,0,0,1,3.368,4.143L219.864,191.813A3.775,3.775,0,0,1,215.722,195.181Z" transform="translate(-50.132 -25.374)" fill="#1c68cb"/><path d="M212.978,52.348v124.8a3.777,3.777,0,0,1-3.775,3.775H80.706a3.769,3.769,0,0,1-1.884-3.666L92.594,43.725a3.777,3.777,0,0,1,4.145-3.368Z" transform="translate(-50.135 -25.372)" fill="#1a78f2"/><path d="M446.926,79.7,433.151,213.235a3.777,3.777,0,0,1-4.143,3.368l-14.972-1.545a3.777,3.777,0,0,0,4.143-3.368L431.954,78.153a3.777,3.777,0,0,0-3.368-4.143l14.972,1.545a3.777,3.777,0,0,1,3.368,4.143Z" transform="translate(-263.418 -46.796)" fill="#1c68cb"/><path d="M199.645,11.732V145.975a3.772,3.772,0,0,1-3.772,3.776H61.626a3.775,3.775,0,0,1-3.776-3.776V11.732a3.777,3.777,0,0,1,3.776-3.776H195.873a3.774,3.774,0,0,1,3.773,3.776Z" transform="translate(-36.805 -4.771)" fill="#f8f3f1"/><path d="M110.049,91.038A17.052,17.052,0,0,1,93.017,108.07H57.85V98.634H93.017a7.594,7.594,0,0,0,0-15.188H74.723a4.72,4.72,0,0,1,0-9.44H93.017A17.055,17.055,0,0,1,110.049,91.038Z" transform="translate(-36.805 -46.793)" fill="#e5e1e5"/><path d="M414.713,11.727V145.974a3.777,3.777,0,0,1-3.775,3.775H395.886a3.777,3.777,0,0,0,3.775-3.775V11.727a3.777,3.777,0,0,0-3.775-3.775h15.052a3.777,3.777,0,0,1,3.775,3.775Z" transform="translate(-251.87 -4.768)" fill="#e5e1e5"/><path d="M25.818,62.981H24.532a7.594,7.594,0,1,0,0,15.188H60.983a7.594,7.594,0,0,0,0-15.188H42.688a4.719,4.719,0,1,1,0-9.438H60.983a17.032,17.032,0,0,1,0,34.064H24.532a17.032,17.032,0,1,1,0-34.064h1.286Z" transform="translate(-4.772 -33.774)" fill="#1a78f2"/><path d="M212.456,26.046l-14.849-1.532V6.961a6.511,6.511,0,0,0-6.5-6.5h-31.01a2.728,2.728,0,0,0,0,5.457H191.1A1.048,1.048,0,0,1,192.15,6.96V141.205a1.048,1.048,0,0,1-1.047,1.047H56.858a1.048,1.048,0,0,1-1.047-1.047V105.862a2.728,2.728,0,0,0-5.457,0v35.343a6.511,6.511,0,0,0,6.5,6.5h1.552l-.4,3.9a6.512,6.512,0,0,0,5.8,7.137l84.09,8.674a2.726,2.726,0,0,0,2.994-2.434,2.728,2.728,0,0,0-2.434-2.994l-84.09-8.674a1.048,1.048,0,0,1-.934-1.149l.46-4.461H191.1a6.511,6.511,0,0,0,6.5-6.5V30L211.9,31.475a1.048,1.048,0,0,1,.934,1.149L199.055,166.16a1.047,1.047,0,0,1-1.149.934l-36.3-3.745a2.728,2.728,0,0,0-.56,5.428l36.3,3.745a6.668,6.668,0,0,0,.68.035,6.5,6.5,0,0,0,6.457-5.837L218.257,33.183a6.511,6.511,0,0,0-5.8-7.137Z" transform="translate(-32.037)"/><path d="M18.318,92.662a2.728,2.728,0,1,0,5.457,0v-36.1H56.211a19.76,19.76,0,0,0,0-39.521H37.917a7.447,7.447,0,1,0,0,14.895H56.211a4.865,4.865,0,1,1,0,9.731H23.775V6.961a1.048,1.048,0,0,1,1.047-1.047h90.033a2.728,2.728,0,1,0,0-5.457H24.821a6.511,6.511,0,0,0-6.5,6.5V17.1a19.754,19.754,0,0,0,0,39.4ZM14.895,36.8a4.874,4.874,0,0,1,3.423-4.647v9.294A4.874,4.874,0,0,1,14.895,36.8Zm-9.438,0A14.324,14.324,0,0,1,18.318,22.57v4.01A10.323,10.323,0,0,0,19.76,47.123H56.211a10.322,10.322,0,1,0,0-20.644H37.917a1.991,1.991,0,1,1,0-3.981H56.211a14.3,14.3,0,0,1,0,28.607H19.76a14.32,14.32,0,0,1-14.3-14.3Z" transform="translate(0 -0.001)"/><path d="M231.092,227.869a2.728,2.728,0,0,0,0,5.457h12.279a2.728,2.728,0,0,0,0-5.457Z" transform="translate(-145.29 -144.684)"/><path d="M239.473,193.625a2.728,2.728,0,0,0-2.728-2.728H206.77a2.728,2.728,0,0,0,0,5.457h29.975A2.728,2.728,0,0,0,239.473,193.625Z" transform="translate(-129.816 -121.162)"/><path d="M236.745,162.829H206.77a2.728,2.728,0,0,0,0,5.457h29.975a2.728,2.728,0,0,0,0-5.457Z" transform="translate(-129.816 -103.304)"/></g></svg>